<?xml version="1.0" encoding="utf-8"?>
<!-- Generator: Adobe Illustrator 21.1.0, SVG Export Plug-In . SVG Version: 6.00 Build 0)  -->
<svg version="1.1" id="Layer_1" xmlns="http://www.w3.org/2000/svg" xmlns:xlink="http://www.w3.org/1999/xlink" x="0px" y="0px"
	 viewBox="0 0 1000 708.6" style="enable-background:new 0 0 1000 708.6;" xml:space="preserve">
<style type="text/css">
	.st0{fill:#FF0000;}
	.st1{fill:#FFFFFF;}
</style>
<g>
	<path class="st0" d="M0.1,339.1c0,80.4,0,129.1,10.3,199.7c7,47.6,18.3,99.9,66,133c33.1,23,124.5,27.3,161.3,29.1
		s164.1,7.7,256,7.7h12.9c91.9,0,219.2-5.8,256-7.7s128.2-6.1,161.3-29.1c47.6-33.1,59-85.4,66-133c10.3-70.5,10.3-119.3,10.3-199.7
		v30.3c0-80.4,0-129.1-10.3-199.7c-7-47.6-18.3-99.9-66-133c-33.1-23-124.5-27.3-161.3-29.1S598.4,0,506.5,0l-12.9,0
		c-91.9,0-219.2,5.8-256,7.7S109.5,13.8,76.4,36.8c-47.6,33.1-59,85.4-66,133C0.1,240.3,0.1,289,0.1,369.4"/>
	<polygon class="st1" points="661.9,354.4 395.9,208.2 395.9,500.6 	"/>
</g>
</svg>
